<?xml version="1.0" encoding="utf-8"?>
<!-- Generator: Adobe Illustrator 19.0.0, SVG Export Plug-In . SVG Version: 6.00 Build 0)  -->
<svg version="1.1" id="Warstwa_1" xmlns="http://www.w3.org/2000/svg"  x="0px" y="0px"
	 width="179.1px" height="34.8px" viewBox="0 0 179.1 34.8" style="enable-background:new 0 0 179.1 34.8;" xml:space="preserve">
<style type="text/css">
	.st0{fill-rule:evenodd;clip-rule:evenodd;fill:#00539F;}
</style>
<path class="st0" d="M78.1,34.6V21.1h-3l-4.4,5.4l-4.3-5.4h-3v13.5h3.3v-8.4l4,4.9l4-4.9v8.4H78.1 M89.9,34.6v-2.5h-5.8v-3.2h5.4
	v-2.5h-5.4v-2.7h5.6v-2.5h-9v13.5H89.9z M105.3,27.8c0-2.2-0.9-4-2.6-5.3c-1.7-1.3-3.4-1.4-5.6-1.4h-5.1v13.5h5.1c1.9,0,3.5-0.1,5-1
	C104.2,32.3,105.3,30.2,105.3,27.8z M101.8,27.8c0,2.4-1.6,4-3.9,4h-2.5v-8h2.5C100.3,23.8,101.8,25.5,101.8,27.8z M107.4,34.6h3.5
	V21.1h-3.5V34.6z M125.4,33.5v-3.1c-1.6,1.1-3.3,1.7-4.9,1.7c-2.5,0-4.1-1.7-4.1-4.2c0-2.6,1.7-4.2,4.4-4.2c1.5,0,3,0.5,4.5,1.5V22
	c-1.5-0.7-3-1.1-4.7-1.1c-4.7,0-7.7,2.9-7.7,7c0,2,0.8,3.8,2.1,5.1c1.3,1.2,3.1,1.9,5.2,1.9C122.1,34.8,123.8,34.4,125.4,33.5z
	 M141.4,27.8c0-2-0.7-3.7-2.1-5.1c-1.3-1.3-3.1-1.9-5.2-1.9c-2.1,0-3.9,0.6-5.2,1.9c-1.4,1.3-2.1,3-2.1,5.1c0,2,0.7,3.7,2.1,5
	c1.4,1.3,3.1,1.9,5.2,1.9c2.1,0,3.9-0.7,5.2-1.9C140.7,31.6,141.4,29.9,141.4,27.8z M137.9,27.8c0,2.4-1.6,4.1-3.8,4.1
	c-2.2,0-3.8-1.7-3.8-4.1c0-2.4,1.6-4.1,3.8-4.1C136.3,23.7,137.9,25.4,137.9,27.8z M155,21.1h-3.7l-3.6,7.9l-3.3-7.9h-3.6l6.1,13.6
	h1.5L155,21.1z M165.2,34.6v-2.5h-5.8v-3.2h5.4v-2.5h-5.4v-2.7h5.6v-2.5h-9v13.5H165.2z M179.1,34.6L177,30
	c-0.4-0.9-0.9-1.4-1.6-1.7c1.6-0.7,2.4-1.8,2.4-3.3c0-2.7-1.8-3.9-5.4-3.9h-5v13.5h3.4v-5.5c0.1,0,0.3,0,0.4,0
	c1.3,0,1.9,0.4,2.4,1.6l1.7,3.9H179.1z M174.2,25c0,1.1-0.6,1.6-1.9,1.6h-1.6v-3.1h1.6C173.6,23.5,174.2,24.1,174.2,25z"/>
<path class="st0" d="M36.6,4.1c6,2.3,10.5,7.2,13.2,13.7C46.7,12.1,41.9,7.9,36,5.7c-6-2.2-13-3.2-19.1-0.9
	C23.2,1.6,30.6,1.8,36.6,4.1"/>
<path class="st0" d="M17.8,1.5c-6,2.4-10.4,7.4-12.9,14c3-5.8,7.7-10,13.6-12.4c5.9-2.3,12.9-2.6,19-0.5C31.1-0.4,23.8-0.9,17.8,1.5
	"/>
<path class="st0" d="M25.7,5c-5.9,0.3-11.3,3.3-15.5,8.3c4.3-4.1,9.7-6.4,15.6-6.7c5.9-0.3,12.3,0.9,17,4.6
	C38.2,6.6,31.7,4.7,25.7,5"/>
<path class="st0" d="M26.6,15.4c1.8,0,3.2,1.4,3.2,3.2c0,1.8-1.4,3.2-3.2,3.2c-1.8,0-3.2-1.4-3.2-3.2C23.4,16.8,24.8,15.4,26.6,15.4
	"/>
<path class="st0" d="M32.1,34.6c0-9.7,13.4-14.1,21.1-15.3c-7.7,0-20.7,0.8-26.6,6.6l0,0v0l0,0v0v0l0,0C20.7,20.1,7.7,19.3,0,19.3
	c7.7,1.2,21.1,5.6,21.1,15.3C24.8,34.6,28.4,34.6,32.1,34.6"/>
</svg>
